<?xml version="1.0" standalone="no"?>
<!DOCTYPE svg PUBLIC "-//W3C//DTD SVG 20010904//EN"
 "http://www.w3.org/TR/2001/REC-SVG-20010904/DTD/svg10.dtd">
<svg version="1.0" xmlns="http://www.w3.org/2000/svg"
 width="500.000000pt" height="500.000000pt" viewBox="0 0 500.000000 500.000000"
 preserveAspectRatio="xMidYMid meet">

<g transform="translate(0.000000,500.000000) scale(0.100000,-0.100000)"
fill="#000000" stroke="none">
<path d="M2293 4870 c-130 -14 -314 -47 -415 -75 -117 -33 -342 -117 -429
-161 -119 -59 -302 -175 -409 -258 -190 -148 -431 -408 -536 -579 -80 -132
-107 -177 -138 -238 -35 -66 -120 -275 -132 -324 -5 -21 -9 -24 -16 -13 -6 9
-7 6 -3 -9 3 -12 -1 -35 -9 -51 -8 -16 -12 -32 -9 -36 4 -3 1 -6 -5 -6 -5 0
-12 3 -15 8 -4 8 0 -9 9 -35 5 -15 4 -16 -5 -3 -7 10 -11 11 -11 3 0 -7 -4
-13 -9 -13 -5 0 -7 10 -5 23 2 12 2 16 -2 10 -11 -25 -23 -12 -19 20 l5 32
-10 -30 c-5 -16 -8 -35 -5 -42 2 -7 -2 -10 -11 -6 -17 6 -18 17 -3 45 8 15 8
23 -2 32 -9 8 -10 8 -5 -2 4 -7 1 -23 -7 -35 -8 -12 -17 -35 -20 -52 -3 -16
-10 -50 -15 -75 -5 -25 -17 -94 -26 -155 -10 -60 -21 -124 -27 -141 -12 -39
-12 -386 0 -416 5 -13 14 -70 21 -128 6 -58 15 -123 20 -145 43 -197 57 -246
113 -395 66 -175 114 -270 260 -505 22 -35 126 -173 168 -222 262 -304 545
-516 919 -686 166 -76 429 -148 670 -184 132 -20 474 -23 602 -5 465 63 845
215 1207 481 459 337 822 891 941 1436 15 72 33 173 40 225 6 52 16 109 21
126 12 42 12 401 -1 409 -5 3 -10 25 -11 48 0 61 -54 322 -59 287 -1 -8 -6 -4
-10 10 -7 23 -8 23 -9 3 -1 -12 -5 -25 -11 -28 -5 -3 -7 0 -4 8 3 8 1 18 -5
21 -6 4 -13 -5 -17 -19 l-6 -25 -19 21 c-11 12 -20 28 -20 36 -4 40 -40 148
-105 315 -185 475 -544 896 -994 1167 -267 160 -579 271 -891 316 -128 18
-425 27 -536 15z m547 -404 c0 -3 -4 -8 -10 -11 -5 -3 -10 -1 -10 4 0 6 5 11
10 11 6 0 10 -2 10 -4z m-687 -42 c9 -10 -4 -34 -18 -34 -17 0 -28 17 -20 30
7 11 28 13 38 4z m987 -180 c0 -8 -5 -12 -10 -9 -6 4 -8 11 -5 16 9 14 15 11
15 -7z m-640 -20 c0 -16 -16 -19 -25 -4 -8 13 4 32 16 25 5 -4 9 -13 9 -21z
m320 11 c13 -16 6 -35 -15 -35 -18 0 -28 17 -21 35 7 19 20 19 36 0z m700 -15
c0 -5 -4 -10 -10 -10 -5 0 -10 5 -10 10 0 6 5 10 10 10 6 0 10 -4 10 -10z
m-1261 -33 c6 -8 7 -17 3 -21 -4 -4 -10 -47 -13 -94 l-6 -87 -1 81 c-1 44 -7
85 -13 91 -13 13 -6 43 9 43 5 0 15 -6 21 -13z m1157 -12 c4 -10 -12 -31 -45
-61 -30 -27 -51 -54 -51 -67 0 -20 -33 -59 -209 -247 l-84 -89 5 -46 c3 -25 2
-48 -3 -51 -5 -3 -9 20 -9 51 l0 57 80 79 80 79 0 85 c0 50 -4 85 -10 85 -16
0 -11 40 6 47 25 9 41 -14 26 -37 -13 -21 -17 -140 -5 -140 17 0 113 115 113
135 0 12 14 34 30 50 17 16 30 38 30 50 0 12 3 25 7 28 11 12 33 7 39 -8z
m-656 -5 c0 -5 -4 -10 -10 -10 -5 0 -10 5 -10 10 0 6 5 10 10 10 6 0 10 -4 10
-10z m-210 -10 c0 -5 -7 -10 -15 -10 -8 0 -15 5 -15 10 0 6 7 10 15 10 8 0 15
-4 15 -10z m-935 -9 c3 -5 1 -12 -5 -16 -5 -3 -10 1 -10 9 0 18 6 21 15 7z
m-224 -14 c-1 -12 -15 -9 -19 4 -3 6 1 10 8 8 6 -3 11 -8 11 -12z m774 -17 c3
-5 1 -10 -4 -10 -6 0 -11 5 -11 10 0 6 2 10 4 10 3 0 8 -4 11 -10z m-520 -10
c3 -5 1 -10 -4 -10 -6 0 -11 5 -11 10 0 6 2 10 4 10 3 0 8 -4 11 -10z m365
-10 c0 -21 -24 -28 -35 -10 -8 14 3 30 21 30 8 0 14 -9 14 -20z m-166 -17 c4
-9 0 -23 -9 -33 -11 -12 -15 -38 -15 -91 l0 -74 80 -80 c44 -44 80 -84 80 -90
0 -5 -38 28 -85 75 l-85 85 0 81 c0 60 -4 85 -15 94 -20 16 -19 37 2 48 21 12
39 6 47 -15z m668 -133 c37 -85 68 -161 68 -167 0 -8 -12 -13 -29 -13 -26 0
-32 6 -47 45 l-17 45 -69 0 -69 0 -20 -45 c-17 -39 -24 -45 -49 -45 -17 0 -30
4 -30 9 0 7 34 87 117 274 23 51 29 58 52 55 23 -3 33 -19 93 -158z m198 -10
l0 -170 -30 0 -29 0 -3 113 c-2 91 -6 112 -18 112 -8 0 -16 8 -18 18 -2 10 3
17 12 17 11 0 16 10 16 33 0 41 5 47 42 47 l28 0 0 -170z m340 136 c0 -3 -4
-8 -10 -11 -5 -3 -10 -1 -10 4 0 6 5 11 10 11 6 0 10 -2 10 -4z m-1370 -116
c0 -5 -5 -10 -11 -10 -5 0 -7 5 -4 10 3 6 8 10 11 10 2 0 4 -4 4 -10z m298
-31 c2 -24 13 -45 33 -65 l29 -28 0 -154 c0 -136 2 -153 16 -148 9 3 20 6 25
6 5 0 9 41 9 91 0 83 2 94 25 121 29 34 35 95 10 104 -8 4 -15 14 -15 24 0 23
26 44 45 36 17 -6 21 -51 5 -61 -5 -3 -10 -23 -10 -43 0 -26 -8 -46 -25 -64
-23 -25 -25 -35 -25 -113 l0 -87 35 46 c32 43 35 52 35 116 0 57 4 77 22 103
13 18 24 34 25 36 2 2 6 2 9 -2 3 -3 -6 -18 -20 -34 -23 -25 -26 -36 -26 -101
0 -72 1 -73 23 -66 12 4 56 7 98 7 87 -2 115 -18 150 -85 18 -34 19 -63 19
-375 l1 -338 29 -55 29 -55 1 393 c0 371 1 395 20 432 31 61 70 82 151 84 38
0 69 5 69 9 0 5 7 1 16 -7 28 -28 34 -17 34 57 0 63 -3 75 -25 100 -14 15 -22
27 -17 27 4 0 18 -14 31 -31 19 -26 23 -43 22 -104 0 -56 3 -76 16 -86 9 -8
24 -27 35 -44 l18 -30 0 91 c0 84 -2 92 -25 114 -19 18 -25 34 -25 65 0 22 -5
46 -12 53 -10 9 -8 16 5 29 16 16 18 16 34 1 13 -14 14 -20 4 -32 -23 -28 -20
-82 6 -112 21 -24 23 -37 23 -121 0 -51 4 -93 9 -93 5 0 16 -3 25 -6 14 -5 16
12 16 148 l0 154 29 28 c20 20 31 41 33 65 3 31 7 36 28 36 20 0 26 -6 28 -28
2 -19 -2 -29 -15 -33 -10 -4 -35 -23 -55 -42 l-38 -36 0 -151 0 -150 39 -32
c34 -28 41 -30 51 -18 7 8 17 15 23 15 5 0 2 -9 -8 -20 -17 -19 -18 -22 -2
-37 15 -16 18 -15 37 2 17 16 20 30 20 109 l0 91 66 70 c36 39 70 81 77 94 15
31 31 36 51 16 23 -23 4 -55 -32 -55 -19 0 -44 -17 -89 -62 l-63 -62 0 -94 c0
-88 -2 -95 -25 -113 l-24 -20 19 -45 c11 -25 20 -54 20 -63 0 -10 18 -35 41
-56 44 -40 69 -88 69 -130 0 -31 27 -34 60 -5 27 24 39 25 46 6 6 -16 28 -12
59 13 11 8 6 0 -12 -19 -24 -26 -31 -41 -27 -58 6 -19 13 -22 59 -22 30 0 57
5 62 13 6 6 13 35 17 64 6 49 5 52 -21 61 l-28 10 27 1 c20 1 29 8 37 31 5 17
13 30 16 30 12 0 75 -53 75 -63 0 -6 -7 -19 -17 -29 -15 -16 -15 -28 -4 -117
13 -98 13 -99 33 -79 24 24 42 12 58 -38 11 -32 32 -45 44 -26 2 4 16 102 31
217 14 115 28 212 31 217 9 14 32 9 38 -9 7 -25 23 -170 31 -278 8 -127 15
-165 29 -165 7 0 17 17 22 37 11 46 39 56 55 19 10 -21 14 -23 31 -13 16 10
22 8 36 -9 18 -23 54 -26 74 -6 15 15 45 16 54 1 14 -23 97 -49 162 -50 104
-2 24 -17 -107 -20 -58 -2 -119 -6 -135 -11 -16 -4 -37 -3 -47 3 -14 7 -25 6
-40 -5 -12 -8 -27 -12 -34 -10 -7 3 -15 -3 -18 -13 -14 -49 -21 -86 -36 -172
-9 -52 -21 -96 -27 -98 -7 -2 -17 48 -28 143 -10 80 -20 153 -23 161 -3 8 -15
13 -26 11 -23 -3 -21 1 -47 -155 -13 -81 -29 -113 -47 -91 -6 7 -21 54 -33
103 -29 116 -30 119 -57 100 -17 -12 -22 -29 -28 -92 -17 -212 -37 -275 -63
-206 -10 28 -24 113 -24 146 1 9 -5 17 -12 17 -8 0 -19 7 -26 15 -7 9 -29 15
-51 15 -29 0 -39 -5 -44 -21 -4 -11 -4 -23 -1 -26 3 -4 -4 -13 -16 -21 -19
-14 -22 -13 -34 3 -8 10 -14 30 -14 44 0 33 -15 58 -25 42 -4 -7 -4 -19 -1
-27 3 -8 2 -12 -4 -9 -5 3 -8 -16 -8 -45 1 -28 -6 -63 -15 -82 -9 -18 -21 -52
-27 -75 -7 -30 -21 -51 -45 -69 -22 -16 -35 -35 -35 -49 0 -56 -55 -146 -99
-160 -9 -3 -26 -23 -39 -45 -23 -40 -73 -80 -101 -80 -8 0 -35 -20 -61 -44
-77 -72 -191 -89 -251 -39 -56 48 -59 64 -59 373 l0 280 -30 0 -30 0 0 -288 0
-288 -27 -42 c-41 -63 -95 -78 -192 -52 -27 7 -61 28 -91 56 -26 24 -53 44
-61 44 -28 0 -78 40 -101 79 -13 23 -28 41 -33 41 -6 0 -27 17 -47 38 -35 37
-58 86 -58 125 0 11 -18 35 -39 54 -30 25 -41 43 -46 76 -4 23 -13 52 -21 64
-8 12 -14 31 -14 43 0 23 -10 25 -30 8 -8 -7 -4 -1 9 14 19 22 22 34 17 62 -8
43 -23 47 -32 9 -16 -80 -39 -92 -59 -32 -10 28 -17 35 -43 37 -17 2 -43 -4
-58 -14 -27 -18 -27 -18 -13 4 10 16 23 22 51 22 40 0 51 9 42 34 -4 11 -19
16 -46 16 -23 0 -37 4 -33 10 3 6 19 10 36 10 16 0 29 5 29 11 0 6 -17 9 -42
7 -40 -3 -43 -5 -49 -38 -14 -68 -32 -175 -34 -201 -4 -42 -15 -69 -29 -69
-12 0 -26 82 -42 252 -6 56 -10 67 -27 72 -12 3 -22 4 -23 3 -1 -1 -14 -47
-29 -101 -14 -55 -28 -103 -31 -107 -2 -4 -18 -7 -34 -7 -24 1 -28 4 -19 14
19 23 -21 234 -44 234 -29 -1 -36 -23 -52 -160 -15 -131 -26 -173 -39 -159 -3
3 -15 65 -26 139 -12 74 -25 139 -30 144 -6 6 -15 4 -24 -3 -12 -10 -20 -10
-38 0 -29 16 -40 17 -221 28 -158 10 -207 21 -90 21 72 0 130 17 153 44 16 20
44 21 59 2 14 -17 53 -15 75 3 9 8 24 11 35 8 13 -3 22 3 30 19 16 36 40 29
60 -18 l19 -43 11 28 c6 16 11 45 11 66 0 68 31 334 41 353 11 20 25 23 34 8
3 -5 13 -65 21 -132 15 -127 31 -246 40 -285 7 -36 30 -27 43 16 13 44 39 61
57 37 17 -24 29 -19 31 12 2 15 6 60 11 100 4 39 5 78 0 85 -11 17 -10 69 1
62 6 -3 14 2 19 11 13 23 45 13 52 -16 4 -17 15 -27 35 -31 l30 -7 -27 -1
c-26 -1 -28 -4 -28 -40 0 -72 10 -101 35 -101 13 0 25 6 28 13 4 10 7 10 18 0
42 -40 75 22 36 66 l-22 24 22 -14 c18 -11 25 -11 35 -1 17 17 35 15 56 -8 27
-29 49 -16 56 34 5 33 18 54 56 94 28 29 50 58 50 65 0 14 22 77 32 93 4 6 -4
22 -17 34 -23 22 -25 31 -25 114 l0 90 -62 63 c-45 46 -70 63 -89 63 -36 0
-54 22 -39 49 6 12 15 21 20 21 21 0 40 -13 40 -29 0 -9 32 -50 70 -93 l70
-76 0 -90 c0 -77 3 -91 20 -107 19 -17 22 -17 36 -3 12 11 13 21 6 34 -5 11
-12 60 -15 109 -4 50 -9 100 -13 112 -4 16 -1 25 11 29 22 9 37 -14 24 -37
-15 -29 -11 -195 5 -208 11 -9 17 -8 28 7 7 10 23 24 36 31 21 11 22 16 22
164 l0 153 -37 36 c-21 19 -46 38 -55 41 -11 4 -18 16 -18 30 0 30 9 39 35 35
15 -2 21 -12 23 -39z m112 21 c0 -5 -7 -10 -16 -10 -8 0 -12 5 -9 10 3 6 10
10 16 10 5 0 9 -4 9 -10z m-495 -20 c3 -5 1 -10 -4 -10 -6 0 -11 5 -11 10 0 6
2 10 4 10 3 0 8 -4 11 -10z m-255 -125 c0 -8 -7 -15 -15 -15 -8 0 -15 7 -15
15 0 8 7 15 15 15 8 0 15 -7 15 -15z m1130 -63 c0 -13 -12 -22 -22 -16 -10 6
-1 24 13 24 5 0 9 -4 9 -8z m-239 -34 c-3 -21 -6 -26 -9 -15 -3 17 3 47 11 47
2 0 1 -15 -2 -32z m863 -16 c0 -12 -1 -59 -2 -104 -1 -45 -4 -79 -7 -76 -8 7
-24 191 -18 201 9 15 28 0 27 -21z m-1438 -71 c7 -12 26 -37 43 -55 26 -27 31
-40 31 -81 0 -39 5 -55 28 -79 l27 -31 -32 29 c-29 26 -33 36 -33 78 0 39 -6
54 -31 83 -19 21 -40 35 -54 35 -30 0 -41 16 -24 36 15 19 31 14 45 -15z
m1734 14 c14 -17 5 -35 -16 -35 -8 0 -33 -14 -55 -32 -36 -29 -39 -35 -39 -83
0 -45 -4 -55 -32 -81 l-33 -29 28 31 c22 24 27 40 27 80 0 44 4 54 35 84 19
19 35 39 35 45 0 12 20 35 31 35 4 0 12 -7 19 -15z m-1413 -27 c-3 -7 -5 -2
-5 12 0 14 2 19 5 13 2 -7 2 -19 0 -25z m1951 -6 c2 -7 -3 -12 -12 -12 -9 0
-16 7 -16 16 0 17 22 14 28 -4z m-3118 -36 c0 -3 -4 -8 -10 -11 -5 -3 -10 -1
-10 4 0 6 5 11 10 11 6 0 10 -2 10 -4z m1000 -31 c0 -8 -4 -15 -10 -15 -5 0
-10 7 -10 15 0 8 5 15 10 15 6 0 10 -7 10 -15z m1400 0 c0 -8 -4 -15 -10 -15
-5 0 -10 7 -10 15 0 8 5 15 10 15 6 0 10 -7 10 -15z m514 -18 c22 -16 13 -41
-21 -56 -21 -10 -29 -9 -43 4 -12 11 -39 15 -96 15 l-79 0 -90 -87 c-49 -49
-73 -70 -53 -48 21 22 59 64 86 93 l48 52 70 0 c50 0 79 5 104 19 42 24 51 25
74 8z m-2377 -13 c5 -13 20 -15 89 -11 68 4 86 1 97 -12 27 -31 30 -46 5 -23
-21 19 -35 22 -101 22 -52 0 -85 -5 -100 -15 -20 -13 -25 -13 -45 1 -12 8 -22
24 -22 35 0 15 7 19 35 19 23 0 38 -6 42 -16z m2848 -33 c3 -5 1 -12 -5 -16
-5 -3 -10 1 -10 9 0 18 6 21 15 7z m-2385 -21 c0 -5 -2 -10 -4 -10 -3 0 -8 5
-11 10 -3 6 -1 10 4 10 6 0 11 -4 11 -10z m-105 -72 l70 -72 -71 64 c-61 56
-83 80 -71 80 1 0 34 -33 72 -72z m1601 -4 c-37 -37 -69 -65 -71 -62 -5 5 120
128 131 128 4 0 -22 -30 -60 -66z m-1636 -36 c0 -13 -4 -10 -55 44 l-50 51 52
-44 c29 -24 53 -47 53 -51z m-570 78 c0 -11 -19 -15 -25 -6 -3 5 1 10 9 10 9
0 16 -2 16 -4z m220 -46 c0 -5 -7 -10 -15 -10 -8 0 -15 5 -15 10 0 6 7 10 15
10 8 0 15 -4 15 -10z m183 -4 c7 -16 -1 -26 -20 -26 -7 0 -13 9 -13 20 0 23
25 27 33 6z m2020 0 c7 -18 -1 -26 -18 -19 -8 2 -11 11 -8 19 7 18 19 18 26 0z
m-323 -16 c0 -5 -10 -15 -22 -21 l-23 -12 20 21 c23 24 25 25 25 12z m-1580
-35 c13 -14 21 -25 18 -25 -2 0 -15 11 -28 25 -13 14 -21 25 -18 25 2 0 15
-11 28 -25z m-52 -10 c4 -24 71 -95 126 -136 21 -16 33 -29 26 -29 -6 0 -45
32 -84 70 -45 43 -81 70 -94 70 -22 0 -31 28 -15 44 13 12 38 1 41 -19z m1824
5 c-12 -11 -24 -20 -28 -20 -4 0 1 9 11 20 10 11 23 20 28 20 6 0 1 -9 -11
-20z m86 -8 c3 -16 -2 -22 -16 -22 -11 0 -25 -7 -32 -16 -8 -8 -23 -20 -34
-26 -18 -9 -17 -6 5 18 15 16 30 39 34 52 9 29 39 25 43 -6z m-2528 8 c0 -5
-2 -10 -4 -10 -3 0 -8 5 -11 10 -3 6 -1 10 4 10 6 0 11 -4 11 -10z m2615 0 c3
-5 1 -10 -4 -10 -6 0 -11 5 -11 10 0 6 2 10 4 10 3 0 8 -4 11 -10z m98 -2 c6
-19 -3 -38 -18 -38 -18 0 -28 17 -21 35 7 18 33 20 39 3z m217 2 c0 -5 -4 -10
-10 -10 -5 0 -10 5 -10 10 0 6 5 10 10 10 6 0 10 -4 10 -10z m-2740 -31 c0 -5
-7 -9 -15 -9 -15 0 -20 12 -9 23 8 8 24 -1 24 -14z m2080 6 c-7 -8 -20 -15
-29 -15 -11 0 -8 5 9 14 33 19 35 19 20 1z m80 12 c0 -2 -15 -16 -32 -33 l-33
-29 29 33 c28 30 36 37 36 29z m-1925 -43 c0 -10 -8 -20 -17 -22 -18 -3 -26
27 -11 42 12 11 28 0 28 -20z m310 -12 c-6 -7 -35 18 -35 31 0 5 9 2 20 -8 11
-10 18 -20 15 -23z m2400 19 c3 -5 1 -12 -5 -16 -5 -3 -10 1 -10 9 0 18 6 21
15 7z m-752 -81 c-23 -22 -50 -40 -60 -40 -12 1 -7 6 12 14 17 7 41 25 54 40
14 14 27 26 30 26 3 0 -13 -18 -36 -40z m867 -70 c0 -5 -4 -10 -10 -10 -5 0
-10 5 -10 10 0 6 5 10 10 10 6 0 10 -4 10 -10z m-270 -30 c0 -5 -4 -10 -10
-10 -5 0 -10 5 -10 10 0 6 5 10 10 10 6 0 10 -4 10 -10z m-2965 -30 c3 -5 1
-10 -4 -10 -6 0 -11 5 -11 10 0 6 2 10 4 10 3 0 8 -4 11 -10z m-205 -15 c0 -8
-6 -15 -14 -15 -17 0 -28 14 -19 24 12 12 33 6 33 -9z m610 -25 c0 -5 -5 -10
-11 -10 -5 0 -7 5 -4 10 3 6 8 10 11 10 2 0 4 -4 4 -10z m2260 0 c0 -5 -7 -10
-15 -10 -8 0 -15 5 -15 10 0 6 7 10 15 10 8 0 15 -4 15 -10z m1284 -15 c-4 -8
-8 -15 -10 -15 -2 0 -4 7 -4 15 0 8 4 15 10 15 5 0 7 -7 4 -15z m-4154 -25 c0
-5 -2 -10 -4 -10 -3 0 -8 5 -11 10 -3 6 -1 10 4 10 6 0 11 -4 11 -10z m3454
-218 c8 -13 -11 -35 -23 -28 -16 10 -14 36 3 36 8 0 17 -4 20 -8z m-3521 -17
c1 -5 -6 -11 -15 -13 -11 -2 -18 3 -18 13 0 17 30 18 33 0z m3668 -130 c-1
-15 -24 -12 -29 3 -3 9 2 13 12 10 10 -1 17 -7 17 -13z m-3281 -55 c0 -5 -4
-10 -10 -10 -5 0 -10 5 -10 10 0 6 5 10 10 10 6 0 10 -4 10 -10z m2780 -114
c-14 -14 -24 0 -16 21 6 15 8 15 16 3 6 -9 5 -19 0 -24z m-2320 -11 c7 -8 22
-16 34 -16 20 -1 20 -2 1 -6 -11 -3 -24 -9 -29 -14 -29 -27 -71 6 -46 36 16
19 24 19 40 0z m1954 9 c21 -8 21 -43 0 -51 -8 -3 -25 -1 -37 5 -12 6 -35 13
-52 15 -27 4 -27 4 6 6 20 0 42 8 49 16 14 17 13 17 34 9z m-2189 -84 c3 -5 1
-10 -4 -10 -6 0 -11 5 -11 10 0 6 2 10 4 10 3 0 8 -4 11 -10z m-125 -4 c0 -3
-4 -8 -10 -11 -5 -3 -10 -1 -10 4 0 6 5 11 10 11 6 0 10 -2 10 -4z m2440 -16
c0 -5 -4 -10 -10 -10 -5 0 -10 5 -10 10 0 6 5 10 10 10 6 0 10 -4 10 -10z
m-2292 -97 c-2 -10 -10 -18 -18 -18 -8 0 -16 8 -18 18 -2 12 3 17 18 17 15 0
20 -5 18 -17z m250 5 c14 -14 -2 -48 -23 -48 -17 0 -34 30 -28 48 6 15 35 16
51 0z m1897 2 c11 -18 -6 -50 -25 -50 -25 0 -43 33 -28 48 15 15 45 16 53 2z
m-2007 -122 c17 -17 -4 -48 -32 -48 -26 0 -39 21 -30 45 7 18 45 20 62 3z
m2126 -3 c9 -25 -5 -45 -30 -45 -26 0 -40 20 -30 45 3 8 16 15 30 15 13 0 26
-7 30 -15z m406 -95 c0 -5 -4 -10 -10 -10 -5 0 -10 5 -10 10 0 6 5 10 10 10 6
0 10 -4 10 -10z m-2495 -28 c8 -22 -18 -45 -44 -37 -25 8 -28 40 -4 53 21 12
39 6 48 -16z m2055 -6 c0 -23 -30 -41 -48 -30 -23 15 -25 29 -7 48 12 12 21
13 36 6 10 -6 19 -17 19 -24z m-2378 -1 c0 -5 -5 -11 -11 -13 -6 -2 -11 4 -11
13 0 9 5 15 11 13 6 -2 11 -8 11 -13z m558 -93 c0 -13 -12 -22 -22 -16 -10 6
-1 24 13 24 5 0 9 -4 9 -8z m2165 -62 c0 -8 -8 -16 -17 -18 -13 -2 -18 3 -18
18 0 15 5 20 18 18 9 -2 17 -10 17 -18z m-264 -53 c-1 -12 -15 -9 -19 4 -3 6
1 10 8 8 6 -3 11 -8 11 -12z m-1721 -232 c0 -58 4 -105 8 -105 4 0 34 27 67
60 33 33 67 60 77 60 27 0 22 -10 -28 -61 l-46 -47 31 -46 c17 -25 36 -48 41
-51 5 -3 15 -15 20 -26 9 -16 7 -19 -13 -19 -20 0 -43 23 -104 109 -2 3 -14
-6 -28 -19 -17 -16 -25 -34 -25 -57 0 -26 -4 -33 -20 -33 -19 0 -20 7 -20 170
0 163 1 170 20 170 19 0 20 -7 20 -105z m528 82 c4 -20 -25 -34 -40 -19 -15
15 -1 44 19 40 10 -2 19 -11 21 -21z m557 -2 c0 -13 -8 -21 -22 -23 -19 -3
-23 1 -23 23 0 22 4 26 23 23 14 -2 22 -10 22 -23z m535 -145 c0 -163 -1 -170
-20 -170 -19 0 -20 7 -20 170 0 163 1 170 20 170 19 0 20 -7 20 -170z m192
101 c164 -105 170 -113 116 -155 -44 -32 -197 -126 -208 -126 -16 0 -20 34
-20 179 0 128 3 161 16 161 2 0 45 -27 96 -59z m-1160 7 c3 -29 7 -33 36 -36
46 -5 43 -32 -3 -32 l-35 0 0 -79 c0 -84 12 -108 49 -98 19 5 36 -15 24 -27
-4 -3 -23 -6 -44 -6 -56 0 -69 25 -69 127 0 76 -2 83 -20 83 -11 0 -20 6 -20
14 0 7 9 16 20 19 13 3 20 14 20 29 0 49 37 53 42 6z m-1352 -43 c0 -19 9 -19
34 0 28 21 69 19 100 -6 l26 -20 26 20 c39 31 89 28 125 -8 28 -28 29 -33 29
-125 0 -89 -1 -96 -20 -96 -18 0 -20 7 -20 87 0 97 -13 123 -60 123 -53 0 -65
-20 -68 -119 -3 -67 -7 -91 -17 -91 -10 0 -16 26 -21 91 -7 99 -18 119 -63
119 -45 0 -58 -26 -66 -122 -5 -65 -11 -88 -21 -88 -11 0 -14 25 -14 125 0
104 2 125 15 125 8 0 15 -7 15 -15z m550 0 c40 -21 48 -57 42 -192 -1 -31 -6
-43 -17 -43 -8 0 -15 5 -15 10 0 7 -7 7 -22 -1 -57 -31 -148 4 -148 57 0 43
30 64 103 71 71 6 78 13 51 52 -14 19 -23 22 -58 19 -22 -3 -47 -6 -55 -9 -30
-9 -21 22 11 36 43 19 72 19 108 0z m516 0 c26 -11 40 -26 55 -60 31 -70 25
-75 -86 -75 -59 0 -95 -4 -95 -10 0 -6 11 -22 26 -36 26 -27 60 -29 122 -9 35
12 28 -20 -9 -35 -44 -19 -95 -14 -130 11 -57 40 -67 126 -22 179 42 51 79 60
139 35z m154 -110 c0 -100 -3 -125 -14 -125 -20 0 -26 32 -26 141 0 97 3 109
27 109 10 0 13 -28 13 -125z m310 25 c24 -55 46 -97 50 -95 4 3 11 16 14 31 4
14 21 57 38 95 23 52 36 69 50 69 23 0 26 9 -40 -141 -63 -145 -71 -145 -134
-1 -66 150 -63 142 -40 142 16 0 29 -21 62 -100z m250 -25 c0 -118 -1 -125
-20 -125 -19 0 -20 7 -20 118 0 120 2 132 27 132 10 0 13 -27 13 -125z m110
104 l0 -20 26 20 c34 27 64 27 64 1 0 -13 -7 -20 -20 -20 -12 0 -32 -11 -45
-25 -22 -22 -25 -32 -25 -105 0 -73 -2 -80 -20 -80 -19 0 -20 7 -20 125 0 118
1 125 20 125 14 0 20 -7 20 -21z m297 -3 c27 -23 28 -29 31 -125 4 -97 3 -101
-17 -101 -12 0 -21 4 -21 9 0 6 -17 3 -37 -5 -67 -28 -133 6 -133 69 0 39 32
59 105 64 69 6 76 13 49 52 -16 23 -36 24 -118 9 -33 -6 -29 22 6 37 51 22
102 19 135 -9z"/>
<path d="M1800 4070 c0 -5 4 -10 9 -10 6 0 13 5 16 10 3 6 -1 10 -9 10 -9 0
-16 -4 -16 -10z"/>
<path d="M2400 3995 c-6 -16 -14 -42 -17 -57 -5 -27 -4 -28 36 -28 39 0 42 2
35 23 -3 12 -15 38 -24 57 l-18 35 -12 -30z"/>
<path d="M1940 3935 c0 -9 5 -15 11 -13 6 2 11 8 11 13 0 5 -5 11 -11 13 -6 2
-11 -4 -11 -13z"/>
<path d="M3036 3942 c-3 -6 -1 -14 5 -17 15 -10 25 3 12 16 -7 7 -13 7 -17 1z"/>
<path d="M2130 3880 c0 -5 5 -10 10 -10 6 0 10 5 10 10 0 6 -4 10 -10 10 -5 0
-10 -4 -10 -10z"/>
<path d="M3296 3801 c-4 -7 -5 -15 -2 -18 9 -9 19 4 14 18 -4 11 -6 11 -12 0z"/>
<path d="M1685 3790 c3 -5 10 -10 16 -10 5 0 9 5 9 10 0 6 -7 10 -16 10 -8 0
-12 -4 -9 -10z"/>
<path d="M2193 3601 c-18 -11 -37 -35 -44 -55 -11 -30 -19 -37 -48 -42 -95
-17 -169 -102 -195 -224 -3 -14 -18 -34 -34 -44 -45 -29 -71 -76 -82 -146 -6
-36 -14 -80 -17 -98 -5 -29 -1 -37 28 -62 36 -31 89 -40 89 -16 0 20 -27 39
-46 32 -38 -15 -61 44 -25 64 22 11 51 4 51 -14 0 -7 11 -23 25 -36 14 -13 25
-31 25 -41 0 -16 19 -29 41 -29 5 0 9 7 9 15 0 20 27 19 38 0 11 -21 117 -46
131 -32 18 18 -18 47 -56 47 -23 0 -33 4 -30 13 6 18 66 12 83 -10 11 -15 15
-16 23 -4 15 23 -6 51 -37 51 -19 0 -40 12 -67 40 -21 22 -47 40 -56 40 -21 0
-30 22 -18 41 6 11 21 1 66 -43 32 -32 67 -58 78 -58 10 0 26 -7 35 -15 16
-14 18 -14 23 4 3 13 -6 30 -29 52 -31 30 -34 38 -34 91 0 54 -2 58 -23 58
-13 0 -32 9 -42 20 -11 12 -31 20 -51 20 -18 0 -36 5 -39 10 -12 19 71 11 97
-10 14 -10 38 -18 53 -17 l28 2 -2 -70 c-2 -63 0 -73 23 -94 28 -27 40 -23 54
18 9 25 7 32 -14 52 -17 16 -24 33 -24 62 0 31 -6 44 -27 61 -15 11 -36 23
-47 26 -24 7 -33 37 -17 53 8 8 25 -4 61 -44 41 -46 49 -60 50 -95 0 -60 32
-86 50 -40 7 18 18 26 42 28 25 2 33 8 33 23 0 13 -8 21 -22 23 -31 5 -29 22
2 22 14 0 30 -9 37 -20 10 -15 24 -20 55 -20 l43 0 0 157 c0 139 -2 162 -21
200 -12 24 -34 50 -50 58 -41 22 -137 19 -176 -4z m158 -58 c42 -45 51 -92 20
-100 -27 -7 -26 -11 9 -53 26 -30 30 -42 30 -97 0 -35 -3 -63 -7 -63 -16 0
-53 45 -53 64 0 12 -13 36 -28 54 -23 27 -35 32 -69 32 -23 0 -45 5 -48 10 -4
6 7 10 24 10 41 0 39 16 -4 41 -37 22 -48 62 -20 73 25 9 45 -5 45 -33 0 -19
16 -43 60 -86 44 -44 60 -67 60 -87 0 -15 5 -30 10 -33 6 -4 10 11 10 38 0 35
-6 49 -29 71 -41 39 -50 116 -14 116 13 0 13 3 2 16 -24 29 -68 45 -104 38
-20 -3 -35 -2 -35 3 0 18 13 23 60 23 40 0 50 -5 81 -37z m-188 -131 c-1 -26
9 -43 48 -86 44 -48 49 -59 49 -100 0 -34 -4 -46 -15 -46 -11 0 -15 12 -15 48
0 45 -3 50 -65 112 -78 79 -85 113 -20 107 16 -2 20 -9 18 -35z m-139 -8 c18
-7 22 -49 6 -59 -5 -3 -10 -26 -10 -51 0 -24 -4 -44 -10 -44 -5 0 -10 20 -10
44 0 25 -4 48 -10 51 -11 7 -14 48 -3 58 8 9 17 9 37 1z m314 -102 c2 -7 -3
-12 -12 -12 -9 0 -16 7 -16 16 0 17 22 14 28 -4z m-398 -113 c0 -7 9 -9 21 -6
15 4 19 1 17 -11 -5 -24 -39 -28 -55 -6 -17 23 -16 34 2 34 8 0 15 -5 15 -11z
m-50 -64 c7 -8 10 -24 7 -34 -7 -29 40 -69 87 -73 56 -4 60 -28 5 -28 -35 0
-50 7 -88 41 -25 22 -52 45 -58 50 -17 13 -16 24 3 43 19 20 28 20 44 1z m178
6 c19 -11 11 -45 -11 -49 -19 -4 -32 20 -23 43 6 17 15 19 34 6z"/>
<path d="M2210 3480 c0 -5 5 -10 10 -10 6 0 10 5 10 10 0 6 -4 10 -10 10 -5 0
-10 -4 -10 -10z"/>
<path d="M2350 3470 c0 -5 5 -10 10 -10 6 0 10 5 10 10 0 6 -4 10 -10 10 -5 0
-10 -4 -10 -10z"/>
<path d="M2130 3420 c0 -5 5 -10 10 -10 6 0 10 5 10 10 0 6 -4 10 -10 10 -5 0
-10 -4 -10 -10z"/>
<path d="M2000 3375 c0 -8 5 -15 10 -15 6 0 10 7 10 15 0 8 -4 15 -10 15 -5 0
-10 -7 -10 -15z"/>
<path d="M1860 3100 c0 -5 5 -10 10 -10 6 0 10 5 10 10 0 6 -4 10 -10 10 -5 0
-10 -4 -10 -10z"/>
<path d="M2638 3609 c-15 -6 -38 -27 -50 -47 -21 -34 -23 -51 -26 -204 l-4
-168 46 0 c35 0 48 4 56 20 11 20 60 29 60 10 0 -5 -9 -10 -19 -10 -22 0 -34
-23 -19 -38 20 -20 4 -47 -32 -52 -35 -5 -35 -6 -33 -53 2 -61 -21 -59 -25 2
-3 33 2 49 17 65 25 26 19 36 -21 36 l-28 0 0 -90 0 -90 53 0 c56 0 77 12 77
43 0 11 14 35 30 54 17 18 30 40 30 48 0 9 10 15 25 15 21 0 25 5 25 33 1 24
12 44 45 80 43 47 69 58 77 35 8 -22 -3 -38 -25 -38 -35 -1 -77 -44 -77 -80 0
-16 5 -30 10 -30 6 0 10 -23 10 -52 0 -39 3 -49 11 -41 7 7 11 39 10 78 -2 77
3 89 29 73 16 -10 23 -9 43 10 24 23 97 32 97 12 0 -5 -15 -10 -33 -10 -21 0
-41 -8 -52 -20 -10 -11 -29 -20 -42 -20 -21 0 -23 -4 -23 -58 0 -46 -4 -63
-20 -77 -11 -10 -20 -28 -20 -40 0 -36 48 -20 107 38 35 34 57 48 68 43 22 -8
14 -30 -12 -34 -11 -2 -37 -21 -58 -42 -22 -22 -47 -40 -56 -40 -36 0 -49 -12
-49 -44 l1 -31 20 28 c16 20 29 27 55 27 24 0 34 -5 34 -15 0 -10 -10 -15 -33
-15 -41 0 -77 -35 -77 -73 0 -26 3 -27 48 -27 61 0 73 11 30 26 l-33 11 53 12
c29 7 52 19 52 26 0 7 7 18 16 25 13 11 16 10 21 -8 3 -12 9 -22 13 -22 21 0
40 14 40 30 0 9 10 25 21 36 12 10 25 29 30 42 14 37 69 22 69 -19 0 -23 -15
-32 -54 -33 -26 -1 -32 -5 -34 -28 -2 -20 1 -28 12 -28 25 0 66 22 66 37 0 7
4 13 9 13 16 0 32 60 21 80 -6 10 -10 36 -10 57 -1 53 -30 111 -79 156 -27 25
-41 46 -41 63 0 84 -126 214 -208 214 -12 0 -22 12 -31 36 -18 49 -62 74 -131
73 -30 0 -67 -5 -82 -10z m152 -44 c0 -11 -9 -13 -42 -9 -37 5 -47 2 -73 -20
-27 -25 -28 -28 -12 -37 25 -15 13 -76 -24 -114 -23 -24 -29 -40 -29 -74 0
-25 4 -40 10 -36 6 3 10 18 10 33 0 20 16 43 60 87 44 43 60 67 60 86 0 30 25
45 46 28 20 -16 17 -48 -3 -56 -23 -8 -53 -34 -53 -45 0 -4 14 -8 31 -8 17 0
28 -4 24 -10 -3 -5 -24 -10 -46 -10 -31 0 -46 -7 -69 -30 -17 -17 -30 -40 -30
-52 0 -21 -36 -68 -52 -68 -4 0 -8 28 -8 63 0 55 4 67 30 97 35 42 36 46 10
53 -15 4 -20 14 -20 39 0 26 8 40 37 65 32 27 46 32 91 33 39 0 52 -4 52 -15z
m108 -136 c2 -9 -25 -46 -62 -85 -62 -65 -66 -72 -66 -116 0 -27 -4 -48 -10
-48 -5 0 -10 1 -11 3 -14 72 -11 83 41 143 36 41 50 64 46 78 -3 11 0 26 6 33
15 18 52 12 56 -8z m120 -48 c2 -13 -1 -28 -7 -34 -6 -6 -11 -30 -11 -54 0
-24 -4 -43 -10 -43 -5 0 -10 20 -10 44 0 25 -4 48 -10 51 -14 9 -13 38 2 53
19 19 43 10 46 -17z m-328 -75 c0 -3 -4 -8 -10 -11 -5 -3 -10 -1 -10 4 0 6 5
11 10 11 6 0 10 -2 10 -4z m410 -114 c0 -17 -39 -44 -57 -40 -10 2 -19 11 -21
22 -3 14 1 17 16 12 11 -4 23 -2 27 4 7 12 35 14 35 2z m-135 -82 c0 -16 -6
-26 -18 -28 -19 -4 -32 20 -23 44 9 25 41 13 41 -16z m189 14 c18 -18 18 -17
10 -38 -3 -9 -11 -16 -18 -16 -7 0 -30 -18 -51 -40 -34 -35 -45 -40 -83 -40
-56 0 -53 24 4 28 51 4 84 35 84 78 0 29 9 41 32 43 4 1 14 -6 22 -15z"/>
<path d="M2770 3480 c0 -5 5 -10 10 -10 6 0 10 5 10 10 0 6 -4 10 -10 10 -5 0
-10 -4 -10 -10z"/>
<path d="M2630 3470 c0 -5 5 -10 10 -10 6 0 10 5 10 10 0 6 -4 10 -10 10 -5 0
-10 -4 -10 -10z"/>
<path d="M2860 3420 c0 -5 5 -10 10 -10 6 0 10 5 10 10 0 6 -4 10 -10 10 -5 0
-10 -4 -10 -10z"/>
<path d="M2980 3381 c0 -6 5 -13 10 -16 6 -3 10 1 10 9 0 9 -4 16 -10 16 -5 0
-10 -4 -10 -9z"/>
<path d="M3120 3100 c0 -5 5 -10 10 -10 6 0 10 5 10 10 0 6 -4 10 -10 10 -5 0
-10 -4 -10 -10z"/>
<path d="M3575 3180 c-3 -5 -1 -10 4 -10 6 0 11 5 11 10 0 6 -2 10 -4 10 -3 0
-8 -4 -11 -10z"/>
<path d="M2370 3162 c0 -5 7 -15 15 -22 10 -8 15 -31 15 -69 1 -36 8 -68 20
-91 l20 -35 -3 110 -2 110 -32 3 c-18 2 -33 -1 -33 -6z"/>
<path d="M2650 3150 c0 -5 5 -10 10 -10 6 0 10 5 10 10 0 6 -4 10 -10 10 -5 0
-10 -4 -10 -10z"/>
<path d="M2360 3123 c1 -4 7 -19 16 -33 l14 -25 -2 29 c-2 16 -9 31 -15 34 -7
2 -13 0 -13 -5z"/>
<path d="M1723 3082 c-14 -2 -20 -8 -16 -18 6 -16 39 -19 49 -3 9 15 -7 26
-33 21z"/>
<path d="M3240 3069 c0 -6 7 -18 16 -27 15 -15 18 -14 30 3 21 28 17 35 -16
35 -16 0 -30 -5 -30 -11z"/>
<path d="M2722 3058 c-7 -7 -12 -19 -12 -29 0 -9 -10 -29 -21 -43 -19 -25 -27
-27 -73 -24 l-51 3 -3 -353 -2 -352 31 -28 c30 -27 31 -31 25 -76 -9 -55 -21
-53 -17 2 2 28 -3 43 -18 56 l-21 19 0 -69 c0 -77 25 -145 58 -163 56 -30 148
-3 211 63 19 19 47 38 63 41 32 7 98 67 98 89 0 8 16 23 35 35 46 27 75 76 75
128 0 36 4 44 34 63 24 14 40 35 51 68 10 26 21 56 25 67 9 21 21 133 22 198
0 21 -7 49 -16 62 -16 24 -21 25 -119 25 -86 0 -106 -4 -127 -20 -17 -14 -41
-20 -77 -20 -29 0 -53 -4 -53 -10 0 -5 13 -10 28 -10 17 0 38 -10 52 -25 28
-30 41 -31 65 -5 14 15 31 20 70 20 38 0 55 4 59 15 6 17 36 20 36 4 0 -23
-36 -38 -86 -39 -38 0 -56 -5 -69 -20 -25 -27 -60 -25 -83 5 -12 15 -30 25
-46 25 -39 0 -33 -29 14 -67 31 -27 47 -33 84 -33 25 0 46 -4 46 -10 0 -5 -23
-10 -52 -10 -45 0 -57 4 -85 32 l-33 32 0 -32 c0 -29 -3 -32 -31 -32 -27 0
-30 -2 -19 -15 9 -11 35 -15 102 -15 57 0 87 -4 83 -10 -3 -5 -43 -10 -89 -10
-82 0 -82 0 -119 38 -23 24 -37 47 -37 64 0 14 -7 31 -15 38 -9 7 -13 15 -10
18 3 3 14 -3 25 -13 20 -18 20 -17 20 7 0 44 -38 68 -108 69 -44 1 -62 5 -62
14 0 18 119 8 141 -11 24 -21 26 -18 27 41 0 54 -5 64 -23 46 -6 -5 -39 -11
-75 -13 -53 -2 -65 0 -65 12 0 12 12 14 66 12 60 -4 68 -2 83 19 10 15 16 44
16 81 0 58 -6 68 -28 46z m328 -263 c0 -8 -4 -15 -10 -15 -5 0 -10 7 -10 15 0
8 5 15 10 15 6 0 10 -7 10 -15z m150 -37 c0 -46 -34 -78 -82 -78 -27 0 -38 4
-38 15 0 10 10 15 32 15 38 0 68 25 68 57 0 12 5 23 10 23 6 0 10 -14 10 -32z
m-523 -30 c19 -18 23 -32 23 -82 0 -67 24 -106 67 -106 16 0 23 -6 23 -20 0
-39 -29 -34 -70 11 -36 41 -39 49 -40 103 0 71 -17 96 -67 96 -18 0 -33 5 -33
10 0 20 73 11 97 -12z m-53 -54 c10 -10 16 -33 16 -63 0 -43 4 -50 55 -100 34
-34 55 -62 55 -76 0 -12 3 -36 6 -54 5 -24 2 -32 -11 -37 -23 -9 -36 14 -23
42 16 35 3 66 -52 122 -47 48 -50 54 -50 102 0 43 -3 53 -20 57 -11 3 -20 9
-20 14 0 15 27 10 44 -7z m576 -36 c0 -34 -42 -88 -69 -88 -8 0 -23 -7 -33
-17 -22 -20 -33 -12 -19 15 6 11 24 23 41 27 34 7 60 39 60 72 0 13 5 23 10
23 6 0 10 -14 10 -32z m-92 -7 c-2 -9 -13 -17 -25 -19 -29 -4 -73 -57 -73 -86
0 -13 11 -40 25 -61 34 -49 22 -60 -16 -15 -42 51 -40 99 6 144 19 20 35 40
35 45 0 5 6 11 13 14 20 7 38 -4 35 -22z m-478 -149 c0 -16 9 -37 20 -47 11
-10 20 -29 20 -42 0 -13 11 -33 25 -45 22 -19 25 -29 25 -94 0 -98 3 -104 56
-104 24 0 44 5 44 10 0 6 13 10 29 10 17 0 33 -4 36 -10 6 -10 -7 -14 -32 -11
-6 1 -14 -3 -18 -9 -3 -5 -29 -10 -57 -10 -67 0 -77 14 -78 111 0 67 -3 78
-25 99 -14 13 -25 34 -25 47 0 12 -9 28 -20 35 -14 9 -20 24 -20 50 0 21 5 38
10 38 6 0 10 -13 10 -28z m530 9 c0 -22 -25 -45 -40 -36 -16 10 -12 33 8 44
25 15 32 13 32 -8z m-252 -48 c2 -15 -5 -25 -24 -35 -15 -7 -45 -34 -67 -61
-40 -47 -45 -66 -35 -136 3 -27 -9 -35 -32 -21 -11 7 -12 13 -2 32 7 13 10 37
8 54 -3 25 4 39 44 83 29 31 47 58 43 67 -10 26 5 46 34 42 20 -2 29 -9 31
-25z m62 9 c0 -20 24 -45 52 -55 11 -4 15 -12 12 -22 -9 -22 -21 -19 -54 18
-28 31 -40 77 -20 77 6 0 10 -8 10 -18z m-357 -109 c-2 -31 2 -44 22 -63 23
-21 25 -31 25 -102 0 -71 2 -78 20 -78 11 0 20 -5 20 -11 0 -6 14 -9 32 -7 19
2 33 -2 35 -9 3 -8 -6 -13 -24 -13 -15 0 -36 -7 -47 -15 -13 -10 -24 -11 -36
-5 -15 8 -18 25 -19 106 -1 80 -5 101 -21 122 -11 13 -20 31 -20 38 0 8 -5 23
-12 33 -13 22 -4 55 15 48 7 -2 11 -19 10 -44z m332 -13 c11 -13 31 -20 52
-20 23 0 33 -4 31 -12 -7 -22 -53 -21 -73 2 -10 11 -24 20 -32 20 -7 0 -13 7
-13 15 0 21 13 19 35 -5z m-75 -35 c0 -37 21 -65 51 -65 12 0 19 -7 19 -20 0
-15 -7 -20 -25 -20 -15 0 -25 6 -25 15 0 8 -9 20 -20 27 -16 10 -20 24 -20 61
0 30 4 46 10 42 6 -3 10 -21 10 -40z"/>
<path d="M2860 2440 c0 -5 5 -10 10 -10 6 0 10 5 10 10 0 6 -4 10 -10 10 -5 0
-10 -4 -10 -10z"/>
<path d="M2660 2070 c0 -5 7 -10 16 -10 8 0 12 5 9 10 -3 6 -10 10 -16 10 -5
0 -9 -4 -9 -10z"/>
<path d="M1720 3030 c0 -5 5 -10 10 -10 6 0 10 5 10 10 0 6 -4 10 -10 10 -5 0
-10 -4 -10 -10z"/>
<path d="M1520 3007 c0 -7 9 -18 20 -25 11 -6 17 -18 14 -25 -3 -10 4 -14 28
-14 18 0 25 2 16 4 -25 6 -23 33 2 33 13 0 20 7 20 20 0 17 -7 20 -50 20 -34
0 -50 -4 -50 -13z"/>
<path d="M3380 3000 c0 -15 7 -20 25 -20 15 0 25 -6 25 -14 0 -8 7 -17 16 -20
14 -5 15 -4 5 7 -9 11 -8 17 2 26 8 6 17 9 20 6 4 -3 5 -2 2 2 -3 3 0 12 6 20
9 11 1 13 -45 13 -49 0 -56 -2 -56 -20z"/>
<path d="M2274 2972 c-8 -19 -14 -38 -14 -42 0 -12 27 -20 66 -20 l34 0 -22
43 c-12 23 -21 45 -21 48 1 3 -5 6 -13 6 -8 0 -22 -16 -30 -35z"/>
<path d="M1830 2979 c0 -5 5 -7 10 -4 6 3 10 8 10 11 0 2 -4 4 -10 4 -5 0 -10
-5 -10 -11z"/>
<path d="M2245 2902 c-3 -3 -5 -11 -5 -19 0 -9 17 -13 65 -13 38 0 65 4 65 10
0 6 -6 12 -12 15 -24 7 -107 12 -113 7z"/>
<path d="M2063 2843 c-26 -9 -12 -23 23 -23 24 0 34 4 32 13 -5 12 -33 17 -55
10z"/>
<path d="M1886 2833 c-1 -2 -23 -4 -47 -6 -40 -2 -46 -5 -63 -41 -16 -33 -17
-44 -7 -71 6 -17 11 -55 11 -84 0 -28 10 -81 21 -117 17 -54 28 -71 60 -92 35
-25 38 -31 39 -74 0 -38 6 -54 31 -82 16 -19 38 -38 49 -41 10 -3 23 -19 30
-36 15 -35 63 -74 102 -84 15 -4 34 -18 43 -31 25 -38 113 -84 163 -84 58 0
80 14 103 63 19 44 27 177 10 177 -19 0 -32 -31 -30 -67 4 -51 -14 -54 -18 -3
-3 34 1 45 26 71 l31 31 0 223 c0 123 -2 230 -5 238 -5 10 -16 12 -48 7 -64
-9 -67 -14 -67 -88 -1 -64 -3 -69 -40 -111 -41 -45 -70 -50 -70 -11 0 14 7 20
23 20 43 0 67 39 67 107 0 55 3 64 26 82 15 12 41 21 61 21 31 0 33 2 23 20
-9 17 -21 20 -74 20 -61 0 -66 -2 -119 -46 -31 -25 -60 -58 -66 -75 -10 -29
-11 -29 -85 -29 -44 0 -76 4 -76 10 0 6 13 10 28 10 21 0 32 7 40 25 15 33 15
36 -4 28 -8 -3 -28 4 -44 16 -20 14 -44 21 -77 21 -55 1 -89 20 -79 46 6 15 9
15 29 -5 17 -15 36 -21 67 -21 31 0 50 -6 66 -21 22 -21 25 -21 48 -5 14 9 30
25 36 36 10 18 8 20 -18 20 -16 0 -37 9 -47 20 -15 17 -29 20 -82 18 -35 -1
-65 -4 -67 -5z m89 -32 c7 -12 -12 -24 -25 -16 -11 7 -4 25 10 25 5 0 11 -4
15 -9z m-155 -33 c0 -33 29 -58 67 -58 23 0 33 -5 33 -15 0 -24 -69 -19 -97 7
-23 22 -33 88 -13 88 6 0 10 -10 10 -22z m462 -40 c-7 -7 -12 -23 -12 -37 0
-16 -14 -40 -37 -63 -37 -38 -37 -38 -120 -38 -49 0 -83 4 -83 10 0 6 34 10
83 10 78 0 85 2 109 28 14 15 29 40 33 57 7 33 25 59 33 50 3 -3 0 -11 -6 -17z
m128 -56 c-23 -8 -30 -23 -30 -70 0 -39 -6 -49 -55 -100 -55 -57 -65 -84 -46
-121 14 -26 -3 -49 -26 -34 -10 6 -16 17 -14 25 2 7 6 30 9 50 3 29 16 49 58
90 49 47 54 57 54 95 0 46 30 90 52 77 9 -6 8 -9 -2 -12z m-585 -36 c1 -31 36
-66 66 -66 10 0 23 -9 29 -21 15 -26 3 -40 -14 -16 -7 9 -22 17 -33 17 -31 0
-73 51 -73 89 0 40 23 38 25 -3z m115 0 c0 -7 16 -27 35 -46 46 -44 47 -89 6
-140 -16 -19 -33 -32 -36 -28 -4 4 4 21 19 38 35 42 34 83 -3 121 -16 16 -39
29 -50 29 -23 0 -30 35 -8 43 17 6 37 -3 37 -17z m-50 -163 c0 -19 -37 -16
-44 3 -11 28 -7 32 19 21 14 -7 25 -18 25 -24z m500 -1 c0 -26 -6 -41 -20 -50
-11 -7 -20 -23 -20 -35 0 -13 -11 -34 -25 -47 -22 -21 -25 -31 -25 -98 0 -93
-13 -112 -76 -112 -24 0 -46 5 -49 10 -3 6 -19 10 -36 10 -16 0 -29 5 -29 10
0 6 16 10 35 10 19 0 35 -4 35 -10 0 -5 20 -10 44 -10 53 0 56 6 56 104 0 64
3 75 25 96 14 13 25 33 25 45 0 12 9 30 20 40 11 10 20 31 20 47 0 15 5 28 10
28 6 0 10 -17 10 -38z m-233 -40 c-4 -22 3 -35 39 -72 37 -38 44 -51 44 -85 0
-23 5 -46 10 -51 15 -15 1 -46 -19 -42 -13 3 -15 14 -13 60 4 54 2 60 -34 103
-20 26 -50 53 -66 61 -32 16 -37 48 -11 63 28 15 56 -6 50 -37z m-107 16 c-1
-23 -52 -88 -69 -88 -18 0 -21 31 -3 37 28 10 52 35 52 55 0 10 5 18 10 18 6
0 10 -10 10 -22z m366 -73 c4 -8 3 -23 -2 -32 -8 -20 -11 -28 -13 -41 0 -5
-10 -19 -21 -32 -17 -20 -20 -37 -20 -120 0 -113 -11 -135 -55 -106 -13 9 -36
16 -50 16 -17 0 -25 5 -22 13 2 6 15 11 29 9 15 -2 29 2 33 7 3 6 15 11 26 11
17 0 19 7 19 78 0 72 2 81 26 103 21 20 25 30 20 60 -3 20 -3 39 1 42 11 11
23 8 29 -8z m-326 -35 c0 -6 -12 -22 -27 -35 -32 -28 -83 -34 -83 -9 0 10 6
14 18 10 10 -3 30 5 47 19 33 27 45 31 45 15z m41 -109 c-12 -12 -21 -25 -21
-31 0 -5 -11 -10 -25 -10 -29 0 -35 27 -7 37 33 12 52 36 52 68 0 50 15 52 18
1 2 -35 -2 -50 -17 -65z"/>
<path d="M2110 2440 c0 -5 7 -10 15 -10 8 0 15 5 15 10 0 6 -7 10 -15 10 -8 0
-15 -4 -15 -10z"/>
<path d="M2310 2070 c0 -5 7 -10 15 -10 8 0 15 5 15 10 0 6 -7 10 -15 10 -8 0
-15 -4 -15 -10z"/>
<path d="M3431 2790 c-49 -7 -52 -28 -4 -23 40 4 47 7 42 20 -2 4 -19 6 -38 3z"/>
<path d="M2204 2782 c-14 -9 -26 -42 -15 -42 9 0 41 33 41 43 0 9 -12 9 -26
-1z"/>
<path d="M3470 2753 c0 -4 -20 -7 -45 -5 -43 4 -45 3 -45 -22 0 -23 4 -26 36
-26 19 0 42 -7 50 -15 9 -8 19 -15 22 -15 11 0 2 79 -9 86 -5 3 -9 2 -9 -3z"/>
<path d="M1310 3490 c0 -5 5 -10 10 -10 6 0 10 5 10 10 0 6 -4 10 -10 10 -5 0
-10 -4 -10 -10z"/>
<path d="M1510 2410 c0 -5 5 -10 10 -10 6 0 10 5 10 10 0 6 -4 10 -10 10 -5 0
-10 -4 -10 -10z"/>
<path d="M3470 2410 c0 -5 5 -10 10 -10 6 0 10 5 10 10 0 6 -4 10 -10 10 -5 0
-10 -4 -10 -10z"/>
<path d="M1546 2233 c-11 -11 -6 -23 9 -23 8 0 15 4 15 9 0 13 -16 22 -24 14z"/>
<path d="M3436 2233 c-11 -11 -6 -23 9 -23 8 0 15 4 15 9 0 13 -16 22 -24 14z"/>
<path d="M1425 2110 c-4 -6 -3 -16 3 -22 6 -6 12 -6 17 2 4 6 3 16 -3 22 -6 6
-12 6 -17 -2z"/>
<path d="M3555 2110 c-4 -6 -3 -16 3 -22 6 -6 12 -6 17 2 4 6 3 16 -3 22 -6 6
-12 6 -17 -2z"/>
<path d="M1460 1986 c0 -9 7 -16 16 -16 17 0 14 22 -4 28 -7 2 -12 -3 -12 -12z"/>
<path d="M3516 1993 c-11 -11 -6 -23 9 -23 8 0 15 4 15 9 0 13 -16 22 -24 14z"/>
<path d="M1668 1409 c-21 -12 -23 -40 -6 -57 18 -18 84 -15 103 4 9 9 15 26
13 38 -2 17 -11 21 -48 23 -25 2 -53 -2 -62 -8z"/>
<path d="M2181 1494 c-12 -15 -21 -31 -21 -35 0 -5 36 -9 80 -9 l81 0 -15 29
c-26 50 -91 58 -125 15z"/>
<path d="M3300 1407 c-16 -8 -25 -21 -25 -37 0 -22 5 -25 42 -28 57 -4 85 12
81 46 -3 23 -8 27 -38 30 -19 1 -46 -4 -60 -11z"/>
<path d="M4826 3083 c-6 -14 -5 -15 5 -6 7 7 10 15 7 18 -3 3 -9 -2 -12 -12z"/>
<path d="M4851 3044 c0 -11 3 -14 6 -6 3 7 2 16 -1 19 -3 4 -6 -2 -5 -13z"/>
</g>
</svg>
